/* XPM */
static char * breakpoint_xpm[] = {
"13 14 2 1",
" 	c None",
".	c #790000",
"             ",
"     ...     ",
"   .......   ",
"  .........  ",
" ........... ",
" ........... ",
" ........... ",
" ........... ",
" ........... ",
" ........... ",
"  .........  ",
"   .......   ",
"    .....    ",
"             "};
